<svg xmlns="http://www.w3.org/2000/svg" width="1600" height="900" viewBox="0 0 1600 900" role="img" aria-label="AST Intelligence Audit - Part 1">
  <defs>
    <style>
      .bg { fill: #0b0f14; }
      .panel { fill: #0f1620; stroke: #1f2a37; stroke-width: 2; }
      .h { fill: #a7f3d0; font: 700 24px ui-monospace, SFMono-Regular, Menlo, Monaco, Consolas, "Liberation Mono", "Courier New", monospace; }
      .t { fill: #e5e7eb; font: 18px ui-monospace, SFMono-Regular, Menlo, Monaco, Consolas, "Liberation Mono", "Courier New", monospace; }
      .muted { fill: #9ca3af; font: 18px ui-monospace, SFMono-Regular, Menlo, Monaco, Consolas, "Liberation Mono", "Courier New", monospace; }
      .sevC { fill: #fb7185; }
      .sevH { fill: #f59e0b; }
      .sevM { fill: #fbbf24; }
      .sevL { fill: #60a5fa; }
      .dot { stroke: #1f2a37; stroke-width: 2; }
    </style>
  </defs>

  <rect class="bg" x="0" y="0" width="1600" height="900" />
  <rect class="panel" x="40" y="40" width="1520" height="820" rx="18" />

  <text class="h" x="80" y="120">Platform: iOS</text>
  <circle class="sevC dot" cx="95" cy="160" r="10" /><text class="t" x="120" y="166">CRITICAL: 2</text>
  <circle class="sevH dot" cx="260" cy="160" r="10" /><text class="t" x="285" y="166">HIGH: 15</text>
  <circle class="sevM dot" cx="395" cy="160" r="10" /><text class="t" x="420" y="166">MEDIUM: 6</text>
  <circle class="sevL dot" cx="555" cy="160" r="10" /><text class="t" x="580" y="166">LOW: 13</text>

  <text class="muted" x="80" y="210">Files affected: 1</text>
  <text class="t" x="80" y="250">Top violations:</text>
  <text class="t" x="110" y="285">ios.quality.long_function: 3</text>
  <text class="t" x="110" y="315">ios.solid.isp.unused_dependency: 2</text>
  <text class="t" x="110" y="345">ios.concurrency.missing_actor: 2</text>
  <text class="t" x="110" y="375">ios.force_unwrapping: 2</text>
  <text class="t" x="110" y="405">ios.uikit.viewmodel_delegation: 1</text>

  <text class="h" x="80" y="500">Platform: Android</text>
  <circle class="sevC dot" cx="95" cy="540" r="10" /><text class="t" x="120" y="546">CRITICAL: 0</text>
  <circle class="sevH dot" cx="260" cy="540" r="10" /><text class="t" x="285" y="546">HIGH: 8</text>
  <circle class="sevM dot" cx="395" cy="540" r="10" /><text class="t" x="420" y="546">MEDIUM: 8</text>
  <circle class="sevL dot" cx="555" cy="540" r="10" /><text class="t" x="580" y="546">LOW: 1</text>

  <text class="t" x="80" y="610">Top violations:</text>
  <text class="t" x="110" y="645">android.asynctask: 2</text>
  <text class="t" x="110" y="675">android.di.missing_android_entry_point: 1</text>
  <text class="t" x="110" y="705">android.networking.missing_error_handling: 1</text>
  <text class="t" x="110" y="735">android.coroutines.missing_lifecycle_scope: 1</text>

  <text class="h" x="920" y="500">Platform: Other</text>
  <circle class="sevC dot" cx="935" cy="540" r="10" /><text class="t" x="960" y="546">CRITICAL: 0</text>
  <circle class="sevH dot" cx="1100" cy="540" r="10" /><text class="t" x="1125" y="546">HIGH: 2</text>
  <circle class="sevM dot" cx="1235" cy="540" r="10" /><text class="t" x="1260" y="546">MEDIUM: 0</text>
  <circle class="sevL dot" cx="1395" cy="540" r="10" /><text class="t" x="1420" y="546">LOW: 0</text>

  <text class="t" x="920" y="610">Top violations:</text>
  <text class="t" x="950" y="645">workflow.tdd.low_test_coverage: 1</text>
  <text class="t" x="950" y="675">workflow.sequence.tests_lagging: 1</text>
</svg>
